<svg width="415" height="584" viewBox="0 0 415 584" fill="none" xmlns="http://www.w3.org/2000/svg">
<path d="M259.919 517.5C259.919 513.904 262.796 511 266.333 511H325.109C328.646 511 331.523 513.904 331.523 517.5V577C331.523 580.596 328.646 583.5 325.109 583.5H266.333C262.796 583.5 259.919 580.596 259.919 577V517.5ZM259.919 387.445C259.919 385.694 260.615 384.018 261.85 382.796L337.211 308.164C338.636 306.753 339.438 304.821 339.438 302.805V227C339.438 215.132 329.932 205.5 318.194 205.5H287.078C275.339 205.5 265.833 215.132 265.833 227V272.5C265.833 276.096 262.956 279 259.419 279H198.915C195.378 279 192.5 276.096 192.5 272.5V199C192.5 160.61 223.24 129.5 261.147 129.5H345.853C383.76 129.5 414.5 160.61 414.5 199V324.532C414.5 329.168 412.63 333.602 409.326 336.808L333.805 410.074C332.347 411.489 331.523 413.445 331.523 415.487V451C331.523 454.596 328.646 457.5 325.109 457.5H266.333C262.796 457.5 259.919 454.596 259.919 451V387.445Z" stroke="#5E5E5E"/>
<path d="M106.283 463.454C104.556 462.727 103.176 461.329 102.462 459.583L103.388 459.205C103.093 458.484 102.93 457.693 102.93 456.862V454.965H101.93V451.173H102.93V447.381H101.93V443.588H102.93V439.796H101.93V436.004H102.93V432.212H101.93V428.419H102.93V424.627H101.93V420.835H102.93V417.042H101.93V413.25H102.93V409.458H101.93V405.665H102.93V401.873H101.93V398.081H102.93V396.185C102.93 395.353 103.093 394.562 103.388 393.842L102.462 393.463C103.176 391.717 104.556 390.319 106.283 389.593L106.67 390.514C107.387 390.213 108.173 390.046 109 390.046H110.878V389.046H114.634V390.046H118.39V389.046H122.145V390.046H125.901V389.046H129.657V390.046H133.413V389.046H137.169V390.046H140.924V389.046H144.68V390.046H148.436V389.046H152.192V390.046H155.948V389.046H159.703V390.046H163.459V389.046H167.215V390.046H169.093C169.92 390.046 170.706 390.213 171.423 390.514L171.81 389.592C173.537 390.319 174.917 391.717 175.631 393.463L174.705 393.842C175 394.562 175.163 395.353 175.163 396.185V398.081H176.163V401.873H175.163V405.665H176.163V409.458H175.163V413.25H176.163V417.042H175.163V420.835H176.163V424.627H175.163V428.419H176.163V432.212H175.163V436.004H176.163V439.796H175.163V443.588H176.163V447.381H175.163V451.173H176.163V454.965H175.163V456.862C175.163 457.693 175 458.484 174.705 459.205L175.631 459.583C174.917 461.329 173.537 462.727 171.81 463.454L171.423 462.532C170.706 462.833 169.92 463 169.093 463H167.215V464H163.459V463H159.703V464H155.948V463H152.192V464H148.436V463H144.68V464H140.924V463H137.169V464H133.413V463H129.657V464H125.901V463H122.145V464H118.39V463H114.634V464H110.878V463H109C108.173 463 107.387 462.833 106.67 462.532L106.283 463.454ZM106.283 334.961C104.556 334.235 103.176 332.837 102.462 331.091L103.388 330.712C103.093 329.992 102.93 329.201 102.93 328.369V326.344H101.93V322.293H102.93V318.242H101.93V314.191H102.93V310.141H101.93V306.09H102.93V302.039H101.93V297.988H102.93V293.938H101.93V289.887H102.93V285.836H101.93V281.785H102.93V277.734H101.93V273.684H102.93V269.633H101.93V265.582H102.93V263.557C102.93 263.146 102.971 262.739 103.05 262.343L102.069 262.147C102.255 261.216 102.624 260.331 103.153 259.545L103.982 260.103C104.208 259.767 104.468 259.453 104.759 259.165L106.135 257.806L105.432 257.095L108.184 254.377L108.887 255.088L111.638 252.37L110.936 251.659L113.687 248.94L114.39 249.652L117.142 246.934L116.439 246.222L119.191 243.504L119.894 244.216L122.646 241.497L121.943 240.786L124.695 238.068L125.397 238.779L128.149 236.061L127.446 235.35L130.198 232.632L130.901 233.343L133.653 230.625L132.95 229.913L135.702 227.195L136.405 227.907L139.156 225.189L138.454 224.477L141.205 221.759L141.908 222.471L144.66 219.752L143.957 219.041L146.709 216.323L147.412 217.034L150.164 214.316L149.461 213.605L152.213 210.887L152.915 211.598L155.667 208.88L154.965 208.168L157.716 205.45L158.419 206.162L161.171 203.444L160.468 202.732L163.22 200.014L163.923 200.725L166.674 198.007L165.972 197.296L168.724 194.578L169.426 195.289L172.178 192.571L171.475 191.86L174.227 189.141L174.93 189.853L177.682 187.135L176.979 186.423L179.731 183.705L180.433 184.417L181.809 183.058C182.196 182.676 182.541 182.258 182.84 181.814L182.01 181.255C182.539 180.469 182.908 179.584 183.093 178.653L184.074 178.848C184.179 178.324 184.233 177.786 184.233 177.243V175.311H183.233V171.445H184.233V167.58H183.233V163.715H184.233V159.85H183.233V155.984H184.233V152.119H183.233V148.254H184.233V144.389H183.233V140.523H184.233V136.658H183.233V132.793H184.233V128.928H183.233V125.063H184.233V121.197H183.233V117.332H184.233V113.467H183.233V109.602H184.233V105.736H183.233V101.871H184.233V99.9385C184.233 99.2014 184.197 98.4724 184.128 97.7531L183.133 97.8485C182.997 96.4368 182.726 95.0652 182.333 93.7471L183.291 93.461C182.869 92.0475 182.312 90.6929 181.636 89.4125L180.752 89.8793C180.097 88.639 179.325 87.4714 178.451 86.3917L179.228 85.7623C178.308 84.626 177.279 83.5824 176.158 82.6477L175.517 83.4158C174.448 82.5245 173.291 81.7369 172.061 81.0684L172.538 80.1898C171.263 79.4968 169.913 78.9259 168.503 78.4925L168.209 79.4483C166.894 79.0438 165.524 78.765 164.113 78.6257L164.211 77.6305C163.491 77.5594 162.761 77.5231 162.023 77.5231H160.035V78.5231H156.058V77.5231H152.081V78.5231H148.105V77.5231H144.128V78.5231H140.151V77.5231H136.174V78.5231H132.198V77.5231H130.209C129.471 77.5231 128.741 77.5594 128.021 77.6305L128.12 78.6257C126.709 78.765 125.339 79.0438 124.023 79.4483L123.729 78.4925C122.32 78.9259 120.969 79.4968 119.694 80.1898L120.172 81.0684C118.942 81.7369 117.784 82.5245 116.715 83.4158L116.075 82.6477C114.954 83.5824 113.925 84.626 113.005 85.7623L113.782 86.3917C112.907 87.4714 112.135 88.639 111.481 89.8793L110.596 89.4125C109.92 90.6929 109.364 92.0475 108.942 93.461L109.9 93.7471C109.506 95.0652 109.235 96.4368 109.1 97.8485L108.104 97.7531C108.035 98.4724 108 99.2014 108 99.9385V101.872H109V105.738H108V109.605H109V113.472H108V117.338H109V121.205H108V125.072H109V128.938H108V132.805H109V136.672H108V140.538H109V144.405H108V146.338C108 147.17 107.837 147.961 107.542 148.681L108.468 149.06C107.754 150.806 106.374 152.204 104.648 152.931L104.26 152.009C103.544 152.31 102.757 152.477 101.93 152.477H99.9971V153.477H96.1308V152.477H92.2645V153.477H88.3983V152.477H84.532V153.477H80.6657V152.477H76.7994V153.477H72.9331V152.477H69.0669V153.477H65.2006V152.477H61.3343V153.477H57.468V152.477H53.6017V153.477H49.7355V152.477H45.8692V153.477H42.0029V152.477H40.0698C39.2426 152.477 38.4563 152.31 37.7402 152.009L37.3523 152.931C35.6257 152.204 34.2456 150.806 33.5319 149.06L34.4575 148.681C34.1631 147.961 34 147.17 34 146.338V144.256H33V140.092H34V135.928H33V131.764H34V127.6H33V123.436H34V119.272H33V115.108H34V110.944H33V106.779H34V102.615H33V98.4513H34V94.2872H33V90.1231H34V85.959H33V81.7949H34V77.6308H33V73.4667H34V71.3846C34 70.7255 34.009 70.0686 34.0268 69.4139L33.0272 69.3867C33.0635 68.051 33.1362 66.7244 33.2443 65.408L34.2409 65.4898C34.3487 64.1773 34.4921 62.8751 34.6701 61.5841L33.6795 61.4475C33.8619 60.1255 34.0801 58.8151 34.3331 57.5173L35.3146 57.7087C35.5663 56.4179 35.8529 55.1398 36.1734 53.8755L35.2041 53.6297C35.5318 52.3369 35.8945 51.0582 36.2911 49.7947L37.2452 50.0942C37.6388 48.8401 38.0663 47.6012 38.5265 46.3787L37.5906 46.0264C38.06 44.7795 38.563 43.5493 39.0985 42.337L40.0133 42.7411C40.5438 41.5401 41.1066 40.3568 41.7007 39.1925L40.8099 38.738C41.4148 37.5523 42.0517 36.386 42.7193 35.2402L43.5833 35.7436C44.2438 34.6101 44.9348 33.4969 45.6552 32.4051L44.8205 31.8543C45.5531 30.7441 46.3157 29.6558 47.1071 28.5905L47.9098 29.1869C48.6918 28.1342 49.5024 27.1044 50.3404 26.0986L49.5721 25.4585C50.423 24.4371 51.3018 23.4401 52.2073 22.4687L52.9388 23.1506C53.8323 22.192 54.7522 21.2588 55.6972 20.352L55.0049 19.6304C55.9636 18.7105 56.9478 17.8175 57.9564 16.9526L58.6074 17.7117C59.6015 16.8591 60.6196 16.0342 61.6605 15.2382L61.0531 14.4438C62.1079 13.6372 63.1858 12.8597 64.2856 12.1126L64.8475 12.9398C65.93 12.2046 67.0339 11.4992 68.1582 10.8249L67.6438 9.9673C68.7816 9.28486 69.94 8.63374 71.1178 8.01511L71.5828 8.90043C72.7403 8.29249 73.9167 7.71641 75.111 7.17333L74.6971 6.26303C75.9039 5.71423 77.1288 5.19863 78.3705 4.71739L78.7319 5.64981C79.9499 5.17775 81.1843 4.73924 82.4341 4.33538L82.1266 3.38383C83.3872 2.97647 84.6632 2.60386 85.9534 2.26712L86.2059 3.23471C87.468 2.90533 88.7439 2.61076 90.0326 2.35207L89.8358 1.37162C91.1324 1.11137 92.4417 0.886917 93.7627 0.699327L93.9033 1.68939C95.1931 1.50624 96.4943 1.35872 97.8059 1.24788L97.7216 0.251432C99.0378 0.140199 100.364 0.0653729 101.7 0.0279523L101.728 1.02756C102.382 1.00923 103.039 1 103.698 1H105.666V0H109.603V1H113.539V0H117.476V1H121.412V0H125.349V1H129.285V0H133.222V1H137.159V0H141.095V1H145.032V0H148.968V1H152.905V0H156.841V1H160.778V0H164.715V1H168.651V0H172.588V1H176.524V0H180.461V1H184.397V0H188.334V1H190.302C190.961 1 191.618 1.00923 192.272 1.02756L192.3 0.0279524C193.636 0.0653731 194.962 0.1402 196.278 0.251432L196.194 1.24788C197.506 1.35873 198.807 1.50624 200.097 1.6894L200.237 0.699327C201.558 0.886917 202.868 1.11137 204.164 1.37163L203.967 2.35207C205.256 2.61076 206.532 2.90533 207.794 3.23471L208.047 2.26712C209.337 2.60386 210.613 2.97647 211.873 3.38383L211.566 4.33538C212.816 4.73924 214.05 5.17776 215.268 5.64981L215.63 4.71739C216.871 5.19864 218.096 5.71423 219.303 6.26303L218.889 7.17333C220.083 7.71642 221.26 8.2925 222.417 8.90043L222.882 8.01512C224.06 8.63375 225.218 9.28487 226.356 9.96731L225.842 10.8249C226.966 11.4992 228.07 12.2046 229.152 12.9398L229.714 12.1126C230.814 12.8597 231.892 13.6372 232.947 14.4438L232.339 15.2382C233.38 16.0342 234.398 16.8591 235.393 17.7117L236.044 16.9526C237.052 17.8175 238.036 18.7105 238.995 19.6304L238.303 20.352C239.248 21.2588 240.168 22.192 241.061 23.1506L241.793 22.4687C242.698 23.4401 243.577 24.4371 244.428 25.4585L243.66 26.0986C244.498 27.1044 245.308 28.1342 246.09 29.1869L246.893 28.5905C247.684 29.6558 248.447 30.7441 249.179 31.8543L248.345 32.4051C249.065 33.4969 249.756 34.6101 250.417 35.7436L251.281 35.2402C251.948 36.386 252.585 37.5523 253.19 38.738L252.299 39.1925C252.893 40.3568 253.456 41.5401 253.987 42.7411L254.901 42.337C255.437 43.5493 255.94 44.7795 256.409 46.0264L255.473 46.3787C255.934 47.6012 256.361 48.8401 256.755 50.0942L257.709 49.7947C258.105 51.0582 258.468 52.3369 258.796 53.6297L257.827 53.8755C258.147 55.1398 258.434 56.4179 258.685 57.7087L259.667 57.5173C259.92 58.8151 260.138 60.1255 260.32 61.4475L259.33 61.5841C259.508 62.8751 259.651 64.1773 259.759 65.4898L260.756 65.408C260.864 66.7244 260.936 68.051 260.973 69.3867L259.973 69.4139C259.991 70.0686 260 70.7255 260 71.3846V73.3849H261V77.3854H260V81.3858H261V85.3863H260V89.3868H261V93.3873H260V97.3877H261V101.388H260V105.389H261V109.389H260V113.39H261V117.39H260V121.391H261V125.391H260V129.392H261V133.392H260V137.392H261V141.393H260V145.393H261V149.394H260V153.394H261V157.395H260V161.395H261V165.396H260V169.396H261V173.397H260V177.397H261V181.398H260V185.398H261V189.399H260V193.399H261V197.4H260V199.4C260 199.968 259.972 200.533 259.916 201.094L260.911 201.193C260.791 202.392 260.551 203.569 260.2 204.708L259.244 204.414C258.91 205.496 258.469 206.541 257.928 207.534L258.805 208.013C258.234 209.061 257.556 210.053 256.78 210.973L256.016 210.328C255.653 210.758 255.267 211.171 254.859 211.566L253.374 213.003L254.07 213.721L251.1 216.595L250.405 215.876L247.435 218.75L248.13 219.469L245.16 222.342L244.465 221.624L241.495 224.497L242.191 225.216L239.221 228.09L238.526 227.371L235.556 230.245L236.251 230.963L233.281 233.837L232.586 233.118L229.616 235.992L230.312 236.711L227.342 239.584L226.647 238.866L223.677 241.739L224.372 242.458L221.402 245.332L220.707 244.613L217.737 247.487L218.433 248.205L215.463 251.079L214.768 250.36L211.798 253.234L212.493 253.953L209.523 256.826L208.828 256.108L205.858 258.982L206.554 259.7L203.584 262.574L202.888 261.855L199.919 264.729L200.614 265.447L197.644 268.321L196.949 267.603L193.979 270.476L194.675 271.195L191.705 274.068L191.009 273.35L188.04 276.224L188.735 276.942L185.765 279.816L185.07 279.097L182.1 281.971L182.796 282.689L179.826 285.563L179.13 284.845L177.646 286.281C177.25 286.664 176.897 287.084 176.591 287.532L177.416 288.096C176.874 288.888 176.496 289.783 176.306 290.726L175.325 290.528C175.218 291.059 175.163 291.604 175.163 292.154V293.965H176.163V297.586H175.163V301.208H176.163V304.829H175.163V308.451H176.163V312.072H175.163V315.694H176.163V319.315H175.163V322.937H176.163V326.558H175.163V328.369C175.163 329.201 175 329.992 174.705 330.712L175.631 331.091C174.917 332.837 173.537 334.235 171.81 334.961L171.423 334.04C170.706 334.341 169.92 334.508 169.093 334.508H167.215V335.508H163.459V334.508H159.703V335.508H155.948V334.508H152.192V335.508H148.436V334.508H144.68V335.508H140.924V334.508H137.169V335.508H133.413V334.508H129.657V335.508H125.901V334.508H122.145V335.508H118.39V334.508H114.634V335.508H110.878V334.508H109C108.173 334.508 107.387 334.341 106.67 334.04L106.283 334.961Z" stroke="#5E5E5E" stroke-width="2" stroke-dasharray="4 4"/>
<path d="M40.8588 499.562C40.1142 499.177 39.5061 498.563 39.1267 497.811L39.6624 497.54C39.4294 497.079 39.2977 496.556 39.2977 496V494.543H38.6977V492.6H39.2977V489.686H38.6977V487.743H39.2977V484.829H38.6977V482.886H39.2977V479.971H38.6977V478.029H39.2977V475.114H38.6977V473.171H39.2977V470.257H38.6977V468.314H39.2977V465.4H38.6977V463.457H39.2977V462C39.2977 461.444 39.4294 460.921 39.6624 460.46L39.1267 460.189C39.506 459.437 40.1142 458.823 40.8588 458.438L41.1342 458.971C41.5934 458.734 42.1137 458.6 42.6667 458.6H44.1125V458H46.0403V458.6H48.932V458H50.8598V458.6H53.7515V458H55.6793V458.6H58.571V458H60.4988V458.6H63.3905V458H65.3183V458.6H68.21V458H70.1378V458.6H73.0295V458H74.9573V458.6H76.4031C76.9561 458.6 77.4764 458.734 77.9356 458.971L78.211 458.438C78.9555 458.823 79.5637 459.437 79.9431 460.189L79.4074 460.46C79.6404 460.921 79.7721 461.444 79.7721 462V463.457H80.3721V465.4H79.7721V468.314H80.3721V470.257H79.7721V473.171H80.3721V475.114H79.7721V478.029H80.3721V479.971H79.7721V482.886H80.3721V484.829H79.7721V487.743H80.3721V489.686H79.7721V492.6H80.3721V494.543H79.7721V496C79.7721 496.556 79.6404 497.079 79.4074 497.54L79.9431 497.811C79.5637 498.563 78.9555 499.177 78.2109 499.562L77.9356 499.029C77.4764 499.266 76.9561 499.4 76.4031 499.4H74.9573V500H73.0294V499.4H70.1378V500H68.21V499.4H65.3183V500H63.3905V499.4H60.4988V500H58.571V499.4H55.6793V500H53.7515V499.4H50.8598V500H48.932V499.4H46.0403V500H44.1125V499.4H42.6667C42.1137 499.4 41.5934 499.266 41.1342 499.029L40.8588 499.562ZM40.8588 427.562C40.1142 427.177 39.506 426.563 39.1267 425.811L39.6624 425.54C39.4294 425.079 39.2977 424.556 39.2977 424V422.444H38.6977V420.368H39.2977V417.255H38.6977V415.18H39.2977V412.067H38.6977V409.992H39.2977V406.879H38.6977V404.804H39.2977V401.691H38.6977V399.616H39.2977V396.503H38.6977V394.427H39.2977V391.314H38.6977V389.239H39.2977V387.683C39.2977 387.409 39.3303 387.139 39.3934 386.878L38.8101 386.737C38.9099 386.324 39.0746 385.929 39.2978 385.568L39.8082 385.883C39.9495 385.655 40.1183 385.442 40.3124 385.251L41.3938 384.184L40.9726 383.757L42.4145 382.336L42.8357 382.763L44.9985 380.631L44.5773 380.203L46.0192 378.782L46.4404 379.209L48.6032 377.077L48.182 376.649L49.6239 375.228L50.0451 375.655L52.2079 373.523L51.7867 373.095L53.2286 371.674L53.6498 372.101L55.8126 369.969L55.3914 369.542L56.8333 368.12L57.2545 368.547L59.4173 366.415L58.9961 365.988L60.438 364.566L60.8592 364.993L63.022 362.861L62.6008 362.434L64.0427 361.012L64.4639 361.44L66.6267 359.307L66.2055 358.88L67.6474 357.458L68.0686 357.886L70.2314 355.753L69.8102 355.326L71.2521 353.905L71.6733 354.332L73.8361 352.199L73.4149 351.772L74.8568 350.351L75.278 350.778L77.4408 348.646L77.0196 348.218L78.4615 346.797L78.8827 347.224L81.0455 345.092L80.6243 344.664L82.0662 343.243L82.4874 343.67L83.5688 342.604C83.8317 342.345 84.0603 342.057 84.2514 341.748L83.741 341.432C83.9642 341.071 84.1288 340.676 84.2286 340.263L84.8119 340.404C84.897 340.051 84.9411 339.686 84.9411 339.317V337.873H84.3411V335.948H84.9411V333.06H84.3411V331.135H84.9411V328.247H84.3411V326.322H84.9411V323.434H84.3411V321.509H84.9411V318.621H84.3411V316.696H84.9411V313.808H84.3411V311.883H84.9411V308.995H84.3411V307.07H84.9411V304.182H84.3411V302.257H84.9411V299.369H84.3411V297.444H84.9411V296C84.9411 295.501 84.9123 295.009 84.8563 294.525L84.2602 294.594C84.1873 293.964 84.066 293.349 83.9001 292.753L84.4781 292.592C84.2106 291.631 83.8327 290.716 83.3591 289.862L82.8344 290.153C82.5296 289.603 82.1831 289.08 81.7992 288.588L82.2723 288.219C81.6648 287.441 80.9683 286.736 80.198 286.121L79.8235 286.59C79.3354 286.2 78.8162 285.848 78.2703 285.538L78.5666 285.016C77.7159 284.533 76.8032 284.147 75.8435 283.874L75.6792 284.451C75.0837 284.281 74.4693 284.157 73.8399 284.083L73.9105 283.487C73.4261 283.43 72.9334 283.4 72.4341 283.4H71.0946V284H69.3085V283.4H66.6295V284H64.8434V283.4H62.1643V284H60.3783V283.4H57.6992V284H55.9132V283.4H54.5736C54.0744 283.4 53.5817 283.43 53.0972 283.487L53.1679 284.083C52.5384 284.157 51.924 284.281 51.3286 284.451L51.1642 283.874C50.2045 284.147 49.2918 284.533 48.4411 285.016L48.7374 285.538C48.1915 285.848 47.6723 286.2 47.1842 286.59L46.8098 286.121C46.0395 286.736 45.3429 287.441 44.7355 288.219L45.2085 288.588C44.8247 289.08 44.4782 289.603 44.1733 290.153L43.6487 289.862C43.1751 290.716 42.7972 291.631 42.5296 292.592L43.1077 292.753C42.9418 293.349 42.8205 293.964 42.7475 294.594L42.1515 294.525C42.0955 295.009 42.0667 295.501 42.0667 296V297.56H42.6667V299.64H42.0667V302.76H42.6667V304.84H42.0667V307.96H42.6667V310.04H42.0667V313.16H42.6667V315.24H42.0667V318.36H42.6667V320.44H42.0667V322C42.0667 322.556 41.9349 323.079 41.702 323.54L42.2376 323.811C41.8583 324.563 41.2501 325.177 40.5055 325.562L40.2302 325.029C39.771 325.266 39.2506 325.4 38.6977 325.4H37.2093V326H35.2248V325.4H32.2481V326H30.2636V325.4H27.2868V326H25.3023V325.4H22.3256V326H20.3411V325.4H17.3643V326H15.3798V325.4H12.4031V326H10.4186V325.4H7.44186V326H5.45736V325.4H3.96899C3.41604 325.4 2.8957 325.266 2.4365 325.029L2.16114 325.562C1.41656 325.177 0.808373 324.563 0.429019 323.811L0.964682 323.54C0.731723 323.079 0.6 322.556 0.6 322V320.425H0V318.325H0.6V315.175H0V313.075H0.6V309.925H0V307.825H0.6V304.675H0V302.575H0.6V299.425H0V297.325H0.6V294.175H0V292.075H0.6V288.925H0V286.825H0.6V283.675H0V281.575H0.6V280C0.6 279.523 0.608415 279.048 0.625103 278.574L0.0254755 278.553C0.0482216 277.908 0.0861132 277.268 0.138803 276.631L0.736759 276.68C0.815487 275.729 0.927743 274.787 1.07233 273.856L0.479435 273.764C0.578348 273.127 0.692169 272.496 0.820526 271.869L1.40832 271.99C1.59979 271.055 1.82411 270.133 2.07999 269.224L1.50243 269.061C1.67689 268.441 1.86579 267.828 2.06877 267.22L2.63781 267.411C2.93959 266.508 3.27293 265.62 3.63652 264.748L3.08272 264.517C3.33029 263.923 3.59168 263.337 3.86647 262.758L4.40849 263.015C4.81643 262.156 5.25437 261.314 5.72094 260.49L5.1989 260.194C5.5158 259.635 5.84571 259.084 6.18822 258.542L6.69543 258.863C7.20292 258.06 7.73849 257.276 8.30074 256.514L7.81791 256.158C8.19933 255.641 8.59285 255.134 8.99804 254.636L9.46323 255.015C10.0628 254.279 10.6884 253.565 11.3385 252.875L10.9018 252.464C11.3421 251.996 11.7935 251.54 12.2555 251.094L12.672 251.526C13.3549 250.868 14.0613 250.234 14.79 249.626L14.4058 249.165C14.8987 248.754 15.4017 248.355 15.9142 247.968L16.2758 248.447C17.032 247.876 17.8094 247.332 18.6065 246.816L18.2806 246.313C18.8192 245.964 19.3666 245.629 19.9225 245.306L20.2235 245.825C21.0425 245.35 21.8802 244.904 22.7352 244.489L22.4729 243.949C23.0494 243.669 23.6336 243.403 24.2252 243.15L24.4607 243.702C25.3298 243.331 26.215 242.991 27.1149 242.683L26.9206 242.115C27.5264 241.908 28.1388 241.715 28.7573 241.537L28.9235 242.113C29.8308 241.852 30.7516 241.623 31.6846 241.427L31.5615 240.84C32.1874 240.708 32.8188 240.592 33.4552 240.491L33.5494 241.083C34.4796 240.935 35.4208 240.82 36.3716 240.74L36.321 240.142C36.9576 240.088 37.5985 240.049 38.2433 240.026L38.265 240.626C38.7378 240.609 39.2129 240.6 39.6899 240.6H41.1485V240H43.0933V240.6H46.0105V240H47.9553V240.6H50.8726V240H52.8174V240.6H55.7346V240H57.6794V240.6H60.5966V240H62.5414V240.6H65.4586V240H67.4034V240.6H70.3206V240H72.2654V240.6H75.1826V240H77.1274V240.6H80.0446V240H81.9895V240.6H84.9067V240H86.8515V240.6H88.3101C88.7871 240.6 89.2622 240.609 89.735 240.626L89.7567 240.026C90.4015 240.049 91.0424 240.088 91.679 240.142L91.6284 240.74C92.5792 240.82 93.5204 240.935 94.4506 241.083L94.5448 240.491C95.1812 240.592 95.8126 240.708 96.4385 240.84L96.3154 241.427C97.2484 241.623 98.1692 241.852 99.0765 242.113L99.2427 241.537C99.8612 241.715 100.474 241.908 101.079 242.115L100.885 242.683C101.785 242.991 102.67 243.331 103.539 243.702L103.775 243.15C104.366 243.403 104.951 243.669 105.527 243.949L105.265 244.489C106.12 244.904 106.957 245.35 107.776 245.825L108.077 245.306C108.633 245.629 109.181 245.964 109.719 246.313L109.394 246.816C110.191 247.332 110.968 247.876 111.724 248.447L112.086 247.968C112.598 248.355 113.101 248.754 113.594 249.165L113.21 249.626C113.939 250.234 114.645 250.868 115.328 251.526L115.744 251.094C116.207 251.54 116.658 251.996 117.098 252.464L116.662 252.875C117.312 253.565 117.937 254.279 118.537 255.015L119.002 254.636C119.407 255.134 119.801 255.641 120.182 256.158L119.699 256.514C120.262 257.276 120.797 258.06 121.305 258.863L121.812 258.542C122.154 259.084 122.484 259.635 122.801 260.194L122.279 260.49C122.746 261.314 123.184 262.156 123.592 263.015L124.134 262.758C124.408 263.337 124.67 263.923 124.917 264.517L124.363 264.748C124.727 265.62 125.06 266.508 125.362 267.411L125.931 267.22C126.134 267.828 126.323 268.441 126.498 269.061L125.92 269.224C126.176 270.133 126.4 271.055 126.592 271.99L127.179 271.869C127.308 272.496 127.422 273.127 127.521 273.764L126.928 273.856C127.072 274.787 127.185 275.729 127.263 276.68L127.861 276.631C127.914 277.268 127.952 277.908 127.975 278.553L127.375 278.574C127.392 279.048 127.4 279.523 127.4 280V281.537H128V283.587H127.4V286.661H128V288.71H127.4V291.785H128V293.834H127.4V296.908H128V298.958H127.4V302.032H128V304.082H127.4V307.156H128V309.205H127.4V312.28H128V314.329H127.4V317.403H128V319.453H127.4V322.527H128V324.577H127.4V327.651H128V329.701H127.4V332.775H128V334.824H127.4V337.899H128V339.948H127.4V343.022H128V345.072H127.4V348.146H128V350.196H127.4V351.733C127.4 352.114 127.377 352.492 127.332 352.866L127.928 352.938C127.863 353.474 127.756 354.001 127.608 354.515L127.032 354.349C126.822 355.079 126.525 355.78 126.149 356.437L126.669 356.735C126.403 357.2 126.099 357.644 125.759 358.063L125.293 357.685C125.056 357.977 124.8 358.257 124.526 358.521L123.442 359.568L123.859 359.999L122.414 361.395L121.997 360.963L119.83 363.057L120.247 363.488L118.802 364.884L118.385 364.452L116.218 366.545L116.635 366.977L115.19 368.373L114.773 367.941L112.605 370.034L113.022 370.466L111.577 371.861L111.16 371.43L108.993 373.523L109.41 373.955L107.965 375.35L107.548 374.919L105.381 377.012L105.798 377.444L104.353 378.839L103.936 378.408L101.768 380.501L102.185 380.932L100.74 382.328L100.323 381.896L98.1561 383.99L98.5729 384.421L97.128 385.817L96.7111 385.385L94.5437 387.479L94.9606 387.91L93.5156 389.306L93.0988 388.874L90.9314 390.967L91.3482 391.399L89.9033 392.795L89.4865 392.363L87.3191 394.456L87.7359 394.888L86.291 396.283L85.8741 395.852L83.7067 397.945L84.1236 398.377L82.6786 399.772L82.2618 399.341L81.1781 400.387C80.909 400.647 80.675 400.937 80.4792 401.249L80.9874 401.568C80.7587 401.932 80.5898 402.331 80.4874 402.75L79.9046 402.607C79.8173 402.964 79.7721 403.333 79.7721 403.707V405.229H80.3721V407.258H79.7721V410.302H80.3721V412.331H79.7721V415.375H80.3721V417.405H79.7721V420.449H80.3721V422.478H79.7721V424C79.7721 424.556 79.6404 425.079 79.4074 425.54L79.9431 425.811C79.5637 426.563 78.9555 427.177 78.211 427.562L77.9356 427.029C77.4764 427.266 76.9561 427.4 76.4031 427.4H74.9573V428H73.0294V427.4H70.1378V428H68.21V427.4H65.3183V428H63.3905V427.4H60.4988V428H58.571V427.4H55.6793V428H53.7515V427.4H50.8598V428H48.932V427.4H46.0403V428H44.1125V427.4H42.6667C42.1137 427.4 41.5934 427.266 41.1342 427.029L40.8588 427.562Z" stroke="#5E5E5E" stroke-width="1.2" stroke-dasharray="3 2"/>
<path d="M119.14 226.462C119.14 225.442 119.972 224.615 121 224.615H136.814C137.841 224.615 138.674 225.442 138.674 226.462V242.154C138.674 243.173 137.841 244 136.814 244H121C119.972 244 119.14 243.173 119.14 242.154V226.462Z" fill="#D60808"/>
<path d="M119.14 192.161C119.14 191.665 119.341 191.189 119.699 190.842L139.975 171.158C140.333 170.811 140.535 170.335 140.535 169.839V149.846C140.535 146.787 138.036 144.308 134.953 144.308H126.581C123.499 144.308 121 146.787 121 149.846V161.846C121 162.866 120.167 163.692 119.14 163.692H102.86C101.833 163.692 101 162.866 101 161.846V142.462C101 132.266 109.33 124 119.605 124H142.395C152.67 124 161 132.266 161 142.462V175.569C161 176.827 160.482 178.031 159.567 178.901L139.248 198.224C138.881 198.572 138.674 199.054 138.674 199.557V208.923C138.674 209.943 137.841 210.769 136.814 210.769H121C119.972 210.769 119.14 209.943 119.14 208.923V192.161Z" fill="#D60808"/>
<path d="M211.14 511.608C211.14 510.597 211.972 509.777 213 509.777H228.814C229.841 509.777 230.674 510.597 230.674 511.608V527.169C230.674 528.18 229.841 529 228.814 529H213C211.972 529 211.14 528.18 211.14 527.169V511.608Z" fill="#D60808"/>
<path d="M211.14 477.593C211.14 477.101 211.341 476.629 211.699 476.285L231.975 456.765C232.333 456.421 232.535 455.949 232.535 455.457V435.631C232.535 432.597 230.036 430.138 226.953 430.138H218.581C215.499 430.138 213 432.597 213 435.631V447.531C213 448.542 212.167 449.362 211.14 449.362H194.86C193.833 449.362 193 448.542 193 447.531V428.308C193 418.197 201.33 410 211.605 410H234.395C244.67 410 253 418.197 253 428.308V461.139C253 462.387 252.482 463.58 251.567 464.444L231.248 483.606C230.881 483.951 230.674 484.428 230.674 484.927V494.215C230.674 495.226 229.841 496.046 228.814 496.046H213C211.972 496.046 211.14 495.226 211.14 494.215V477.593Z" fill="#D60808"/>
<path d="M293.14 384.462C293.14 383.442 293.972 382.615 295 382.615H310.814C311.841 382.615 312.674 383.442 312.674 384.462V400.154C312.674 401.173 311.841 402 310.814 402H295C293.972 402 293.14 401.173 293.14 400.154V384.462Z" fill="#D60808"/>
<path d="M293.14 350.161C293.14 349.665 293.341 349.189 293.699 348.842L313.975 329.158C314.333 328.811 314.535 328.335 314.535 327.839V307.846C314.535 304.787 312.036 302.308 308.953 302.308H300.581C297.499 302.308 295 304.787 295 307.846V319.846C295 320.866 294.167 321.692 293.14 321.692H276.86C275.833 321.692 275 320.866 275 319.846V300.462C275 290.266 283.33 282 293.605 282H316.395C326.67 282 335 290.266 335 300.462V333.569C335 334.827 334.482 336.031 333.567 336.901L313.248 356.224C312.881 356.572 312.674 357.054 312.674 357.557V366.923C312.674 367.943 311.841 368.769 310.814 368.769H295C293.972 368.769 293.14 367.943 293.14 366.923V350.161Z" fill="#D60808"/>
<path d="M182.674 366.792C182.674 366.257 183.119 365.823 183.667 365.823H192.101C192.649 365.823 193.093 366.257 193.093 366.792V375.031C193.093 375.566 192.649 376 192.101 376H183.667C183.119 376 182.674 375.566 182.674 375.031V366.792Z" fill="#D60808"/>
<path d="M182.674 348.785C182.674 348.524 182.782 348.274 182.973 348.092L193.787 337.758C193.978 337.576 194.085 337.326 194.085 337.065V326.569C194.085 324.963 192.753 323.662 191.109 323.662H186.643C184.999 323.662 183.667 324.963 183.667 326.569V332.869C183.667 333.405 183.222 333.838 182.674 333.838H173.992C173.444 333.838 173 333.405 173 332.869V322.692C173 317.339 177.442 313 182.922 313H195.078C200.558 313 205 317.339 205 322.692V340.074C205 340.734 204.724 341.366 204.236 341.823L193.399 351.968C193.203 352.15 193.093 352.403 193.093 352.667V357.585C193.093 358.12 192.649 358.554 192.101 358.554H183.667C183.119 358.554 182.674 358.12 182.674 357.585V348.785Z" fill="#D60808"/>
<path d="M94.093 428.008C94.093 426.555 95.2453 425.377 96.6667 425.377H118.543C119.964 425.377 121.116 426.555 121.116 428.008V450.369C121.116 451.822 119.964 453 118.543 453H96.6667C95.2453 453 94.093 451.822 94.093 450.369V428.008Z" fill="#D1D1D1"/>
<path d="M94.093 379.13C94.093 378.422 94.372 377.744 94.8669 377.249L122.916 349.201C123.411 348.706 123.69 348.028 123.69 347.32V318.831C123.69 314.472 120.233 310.938 115.969 310.938H104.388C100.123 310.938 96.6667 314.472 96.6667 318.831V335.931C96.6667 337.384 95.5144 338.562 94.093 338.562H71.5736C70.1523 338.562 69 337.384 69 335.931V308.308C69 293.778 80.5226 282 94.7364 282H126.264C140.477 282 152 293.778 152 308.308V355.486C152 357.279 151.284 358.994 150.018 360.234L121.909 387.769C121.403 388.266 121.116 388.952 121.116 389.669V403.015C121.116 404.468 119.964 405.646 118.543 405.646H96.6667C95.2453 405.646 94.093 404.468 94.093 403.015V379.13Z" fill="#D1D1D1"/>
<path d="M287.395 535.015C287.395 534.319 287.965 533.754 288.667 533.754H299.473C300.175 533.754 300.744 534.319 300.744 535.015V545.738C300.744 546.435 300.175 547 299.473 547H288.667C287.965 547 287.395 546.435 287.395 545.738V535.015Z" fill="#D1D1D1"/>
<path d="M287.395 511.577C287.395 511.237 287.533 510.912 287.778 510.675L301.633 497.225C301.878 496.988 302.016 496.663 302.016 496.323V482.662C302.016 480.571 300.308 478.877 298.202 478.877H292.481C290.374 478.877 288.667 480.571 288.667 482.662V490.862C288.667 491.558 288.097 492.123 287.395 492.123H276.271C275.569 492.123 275 491.558 275 490.862V477.615C275 470.648 280.692 465 287.713 465H303.287C310.308 465 316 470.648 316 477.615V500.239C316 501.098 315.646 501.921 315.021 502.516L301.136 515.72C300.886 515.958 300.744 516.287 300.744 516.631V523.031C300.744 523.728 300.175 524.292 299.473 524.292H288.667C287.965 524.292 287.395 523.728 287.395 523.031V511.577Z" fill="#D1D1D1"/>
<path d="M227.698 222.146C227.698 219.946 229.475 218.162 231.667 218.162H265.403C267.595 218.162 269.372 219.946 269.372 222.146V256.015C269.372 258.216 267.595 260 265.403 260H231.667C229.475 260 227.698 258.216 227.698 256.015V222.146Z" fill="#D1D1D1"/>
<path d="M227.698 148.115C227.698 147.043 228.128 146.016 228.891 145.266L272.148 102.784C272.911 102.034 273.341 101.007 273.341 99.9353V56.7846C273.341 50.1827 268.01 44.8308 261.434 44.8308H243.574C236.998 44.8308 231.667 50.1827 231.667 56.7846V82.6846C231.667 84.8853 229.89 86.6692 227.698 86.6692H192.969C190.777 86.6692 189 84.8853 189 82.6846V40.8462C189 18.8397 206.77 1 228.69 1H277.31C299.23 1 317 18.8397 317 40.8462V112.303C317 115.018 315.896 117.616 313.943 119.495L270.595 161.2C269.814 161.952 269.372 162.991 269.372 164.077V184.292C269.372 186.493 267.595 188.277 265.403 188.277H231.667C229.475 188.277 227.698 186.493 227.698 184.292V148.115Z" fill="#D1D1D1"/>
</svg>
